REM DIRINDEX 1\2,1\3,1\4,1\5
REM DIRNAME "folder01","folder02","folder03","folder04","folder05"
TITLE ""
FILE "1Q_j_2170-2183.mp3" MP3
  TRACK 01 AUDIO
    TITLE "3:cjc172_0210"
    INDEX 01 00:00:00
  TRACK 02 AUDIO
    TITLE "0:"
    INDEX 01 00:02:11
  TRACK 03 AUDIO
    TITLE "4:cjc172_0211"
    INDEX 01 00:02:19
  TRACK 04 AUDIO
    TITLE "0:"
    INDEX 01 00:04:18
  TRACK 05 AUDIO
    TITLE "5:cjc172_0212"
    INDEX 01 00:04:26
  TRACK 06 AUDIO
    TITLE "0:"
    INDEX 01 00:11:04
  TRACK 07 AUDIO
    TITLE "3:cjc172_0213"
    INDEX 01 00:11:49
  TRACK 08 AUDIO
    TITLE "0:"
    INDEX 01 00:12:74
  TRACK 09 AUDIO
    TITLE "4:cjc172_0214"
    INDEX 01 00:13:09
  TRACK 10 AUDIO
    TITLE "0:"
    INDEX 01 00:14:50
  TRACK 11 AUDIO
    TITLE "5:cjc172_0215"
    INDEX 01 00:14:57
  TRACK 12 AUDIO
    TITLE "0:"
    INDEX 01 00:20:72
  TRACK 13 AUDIO
    TITLE "3:cjc172_0216"
    INDEX 01 00:21:42
  TRACK 14 AUDIO
    TITLE "0:"
    INDEX 01 00:22:63
  TRACK 15 AUDIO
    TITLE "4:cjc172_0217"
    INDEX 01 00:22:71
  TRACK 16 AUDIO
    TITLE "0:"
    INDEX 01 00:24:64
  TRACK 17 AUDIO
    TITLE "5:cjc172_0218"
    INDEX 01 00:24:72
  TRACK 18 AUDIO
    TITLE "0:"
    INDEX 01 00:31:30
  TRACK 19 AUDIO
    TITLE "3:cjc172_0219"
    INDEX 01 00:32:02
  TRACK 20 AUDIO
    TITLE "0:"
    INDEX 01 00:33:10
  TRACK 21 AUDIO
    TITLE "4:cjc172_0220"
    INDEX 01 00:33:22
  TRACK 22 AUDIO
    TITLE "0:"
    INDEX 01 00:36:53
  TRACK 23 AUDIO
    TITLE "5:cjc172_0221"
    INDEX 01 00:36:61
  TRACK 24 AUDIO
    TITLE "0:"
    INDEX 01 00:43:14
  TRACK 25 AUDIO
    TITLE "3:cjc172_0222"
    INDEX 01 00:43:61
  TRACK 26 AUDIO
    TITLE "0:"
    INDEX 01 00:44:70
  TRACK 27 AUDIO
    TITLE "4:cjc172_0223"
    INDEX 01 00:45:05
  TRACK 28 AUDIO
    TITLE "0:"
    INDEX 01 00:47:57
  TRACK 29 AUDIO
    TITLE "5:cjc172_0224"
    INDEX 01 00:47:65
  TRACK 30 AUDIO
    TITLE "0:"
    INDEX 01 00:54:65
  TRACK 31 AUDIO
    TITLE "3:cjc172_0225"
    INDEX 01 00:55:37
  TRACK 32 AUDIO
    TITLE "0:"
    INDEX 01 00:56:66
  TRACK 33 AUDIO
    TITLE "4:cjc172_0226"
    INDEX 01 00:56:75
  TRACK 34 AUDIO
    TITLE "0:"
    INDEX 01 01:01:24
  TRACK 35 AUDIO
    TITLE "5:cjc172_0227"
    INDEX 01 01:01:33
  TRACK 36 AUDIO
    TITLE "0:"
    INDEX 01 01:07:75
  TRACK 37 AUDIO
    TITLE "3:cjc172_0228"
    INDEX 01 01:08:45
  TRACK 38 AUDIO
    TITLE "0:"
    INDEX 01 01:09:72
  TRACK 39 AUDIO
    TITLE "4:cjc172_0229"
    INDEX 01 01:10:07
  TRACK 40 AUDIO
    TITLE "0:"
    INDEX 01 01:14:01
  TRACK 41 AUDIO
    TITLE "5:cjc172_0230"
    INDEX 01 01:14:09
  TRACK 42 AUDIO
    TITLE "0:"
    INDEX 01 01:20:07
  TRACK 43 AUDIO
    TITLE "3:cjc172_0231"
    INDEX 01 01:20:54
  TRACK 44 AUDIO
    TITLE "0:"
    INDEX 01 01:22:12
  TRACK 45 AUDIO
    TITLE "4:cjc172_0232"
    INDEX 01 01:22:20
  TRACK 46 AUDIO
    TITLE "0:"
    INDEX 01 01:24:37
  TRACK 47 AUDIO
    TITLE "5:cjc172_0233"
    INDEX 01 01:24:42
  TRACK 48 AUDIO
    TITLE "0:"
    INDEX 01 01:30:12
  TRACK 49 AUDIO
    TITLE "3:cjc172_0234"
    INDEX 01 01:30:59
  TRACK 50 AUDIO
    TITLE "0:"
    INDEX 01 01:31:72
  TRACK 51 AUDIO
    TITLE "4:cjc172_0235"
    INDEX 01 01:32:03
  TRACK 52 AUDIO
    TITLE "0:"
    INDEX 01 01:33:75
  TRACK 53 AUDIO
    TITLE "5:cjc172_0236"
    INDEX 01 01:34:07
  TRACK 54 AUDIO
    TITLE "0:"
    INDEX 01 01:38:33
  TRACK 55 AUDIO
    TITLE "3:cjc172_0237"
    INDEX 01 01:39:05
  TRACK 56 AUDIO
    TITLE "0:"
    INDEX 01 01:40:18
  TRACK 57 AUDIO
    TITLE "4:cjc172_0238"
    INDEX 01 01:40:30
  TRACK 58 AUDIO
    TITLE "0:"
    INDEX 01 01:45:13
  TRACK 59 AUDIO
    TITLE "5:cjc172_0239"
    INDEX 01 01:45:21
  TRACK 60 AUDIO
    TITLE "0:"
    INDEX 01 01:49:56
  TRACK 61 AUDIO
    TITLE "3:cjc172_0240"
    INDEX 01 01:50:28
  TRACK 62 AUDIO
    TITLE "0:"
    INDEX 01 01:52:49
  TRACK 63 AUDIO
    TITLE "4:cjc172_0241"
    INDEX 01 01:52:58
  TRACK 64 AUDIO
    TITLE "0:"
    INDEX 01 01:55:45
  TRACK 65 AUDIO
    TITLE "5:cjc172_0242"
    INDEX 01 01:55:53
  TRACK 66 AUDIO
    TITLE "0:"
    INDEX 01 02:02:55
  TRACK 67 AUDIO
    TITLE "3:cjc172_0243"
    INDEX 01 02:03:25
  TRACK 68 AUDIO
    TITLE "0:"
    INDEX 01 02:04:54
  TRACK 69 AUDIO
    TITLE "4:cjc172_0244"
    INDEX 01 02:04:61
  TRACK 70 AUDIO
    TITLE "0:"
    INDEX 01 02:07:01
  TRACK 71 AUDIO
    TITLE "5:cjc172_0245"
    INDEX 01 02:07:09
  TRACK 72 AUDIO
    TITLE "0:"
    INDEX 01 02:12:59
  TRACK 73 AUDIO
    TITLE "3:cjc172_0246"
    INDEX 01 02:13:31
  TRACK 74 AUDIO
    TITLE "0:"
    INDEX 01 02:14:68
  TRACK 75 AUDIO
    TITLE "4:cjc172_0247"
    INDEX 01 02:15:01
  TRACK 76 AUDIO
    TITLE "0:"
    INDEX 01 02:17:62
  TRACK 77 AUDIO
    TITLE "5:cjc172_0248"
    INDEX 01 02:17:70
  TRACK 78 AUDIO
    TITLE "0:"
    INDEX 01 02:21:62
  TRACK 79 AUDIO
    TITLE "3:cjc172_0249"
    INDEX 01 02:22:34
  TRACK 80 AUDIO
    TITLE "0:"
    INDEX 01 02:23:63
  TRACK 81 AUDIO
    TITLE "4:cjc172_0250"
    INDEX 01 02:23:71
  TRACK 82 AUDIO
    TITLE "0:"
    INDEX 01 02:25:48
  TRACK 83 AUDIO
    TITLE "5:cjc172_0251"
    INDEX 01 02:25:54
  TRACK 84 AUDIO
    TITLE "0:"
    INDEX 01 02:30:28
